<svg width="244" height="37" viewBox="0 0 244 37" fill="none" xmlns="http://www.w3.org/2000/svg">
<g clip-path="url(#clip0_25_148)" filter="url(#filter0_d_25_148)">
<path d="M167.096 7.51367H163.274V26.511H167.096V7.51367Z" fill="#468459"/>
<path d="M147.961 7.51367L140.622 26.5051H144.634L150.038 12.0298L155.436 26.5051H159.448L152.109 7.51367H147.961Z" fill="#468459"/>
<path d="M60.2546 7.51367L52.916 26.5051H56.9276L62.3318 12.0298L67.7302 26.5051H71.7417L64.409 7.51367H60.2546Z" fill="#468459"/>
<path d="M113.368 19.2376C113.35 20.2349 112.939 21.1849 112.226 21.8829C111.512 22.5809 110.552 22.9711 109.553 22.9694C108.586 23.0129 107.64 22.6713 106.925 22.0195C106.21 21.3677 105.783 20.459 105.738 19.4932C105.735 19.4635 105.735 19.4337 105.738 19.404V7.51953H101.917V19.404C101.973 21.3899 102.802 23.2759 104.228 24.661C105.655 26.046 107.566 26.821 109.556 26.821C111.546 26.821 113.458 26.046 114.884 24.661C116.311 23.2759 117.14 21.3899 117.195 19.404V7.51953H113.38L113.368 19.2376Z" fill="#468459"/>
<path d="M137.588 13.4618C137.58 11.881 136.945 10.3679 135.821 9.25397C134.698 8.14009 133.178 7.51638 131.594 7.51954H122.887V26.5347H126.648V10.8353H131.124C131.801 10.8674 132.439 11.1585 132.907 11.6481C133.375 12.1377 133.636 12.7882 133.636 13.4648C133.636 14.1413 133.375 14.7918 132.907 15.2814C132.439 15.771 131.801 16.0621 131.124 16.0942H128.065L133.618 26.5288H137.713L133.648 19.0653C134.803 18.651 135.802 17.8902 136.507 16.887C137.213 15.8839 137.59 14.6875 137.588 13.4618Z" fill="#468459"/>
<path d="M91.5188 7.51367L85.9181 15.1435L80.3114 7.51367H75.6035V26.5051H79.4246V12.6953L85.9181 21.3234L92.4115 12.6953V26.5051H96.2326V7.51367H91.5188Z" fill="#468459"/>
<path d="M44.583 15.1841H39.2263C38.72 15.1717 38.2387 14.9622 37.885 14.6002C37.5314 14.2382 37.3335 13.7526 37.3336 13.247C37.3335 12.7492 37.5282 12.2711 37.8763 11.9147C38.2244 11.5583 38.6982 11.3519 39.1966 11.3395H48.6779L50.7015 7.54834H39.2144C37.7073 7.55145 36.2624 8.14895 35.1944 9.21072C34.1265 10.2725 33.522 11.7125 33.5126 13.2172C33.5267 14.7124 34.1344 16.1408 35.2022 17.1891C36.2701 18.2374 37.7109 18.82 39.2085 18.8089H44.5651C45.0797 18.8089 45.5733 19.013 45.9371 19.3763C46.301 19.7396 46.5055 20.2323 46.5055 20.7461C46.5055 21.2598 46.301 21.7526 45.9371 22.1159C45.5733 22.4791 45.0797 22.6832 44.5651 22.6832H35.0422L33.0186 26.4803H44.5651C46.0754 26.4914 47.5287 25.9051 48.6072 24.8495C49.6857 23.7939 50.3017 22.3549 50.3206 20.8471C50.3182 20.1065 50.1698 19.3737 49.8838 18.6904C49.5978 18.0071 49.1798 17.3868 48.6536 16.8648C48.1275 16.3428 47.5035 15.9294 46.8173 15.6481C46.1311 15.3669 45.3962 15.2234 44.6544 15.2257L44.583 15.1841Z" fill="#468459"/>
<path d="M20.7637 19.0653L11.699 28.145C9.10062 27.1655 6.92707 25.3097 5.55469 22.8989C4.18231 20.4881 3.69751 17.6741 4.18421 14.944C4.67092 12.214 6.0985 9.73977 8.21979 7.9498C10.3411 6.15982 13.0225 5.16677 15.7998 5.14258C16.3715 5.14252 16.9424 5.18423 17.508 5.26737L9.30043 13.4617C8.92252 13.8394 8.62283 14.2877 8.41846 14.781C8.21408 15.2744 8.10904 15.803 8.10931 16.3369C8.10987 17.4151 8.5394 18.4489 9.30341 19.2108C10.0674 19.9728 11.1033 20.4006 12.1832 20.4C13.2631 20.3995 14.2986 19.9706 15.0618 19.2079L18.0377 16.2368C18.4057 15.8721 18.9031 15.6674 19.4215 15.6674C19.94 15.6674 20.4374 15.8721 20.8054 16.2368C20.9907 16.4216 21.1378 16.6412 21.2381 16.8828C21.3384 17.1245 21.3901 17.3835 21.3901 17.6451C21.3901 17.9066 21.3384 18.1657 21.2381 18.4073C21.1378 18.649 20.9907 18.8685 20.8054 19.0534L20.7637 19.0653Z" fill="#468459"/>
<path d="M19.8233 5.85547L10.7824 14.959C10.4167 15.3321 10.2119 15.8334 10.2119 16.3554C10.2119 16.8775 10.4167 17.3787 10.7824 17.7518C10.9604 17.9398 11.1749 18.0895 11.4129 18.1918C11.6508 18.2941 11.9072 18.3468 12.1662 18.3468C12.4253 18.3468 12.6816 18.2941 12.9196 18.1918C13.1575 18.0895 13.372 17.9398 13.55 17.7518L16.5259 14.7807C17.2768 14.0292 18.2944 13.6038 19.3576 13.5971C20.4208 13.5905 21.4437 14.003 22.204 14.7451L22.2338 14.7807C22.9919 15.5442 23.4173 16.5757 23.4173 17.6508C23.4173 18.7259 22.9919 19.7575 22.2338 20.5209L14.0619 28.7331C14.6295 28.816 15.2024 28.8577 15.776 28.8579C18.5489 28.8216 21.2221 27.82 23.3341 26.0258C25.4461 24.2316 26.8645 21.7575 27.3443 19.0306C27.8241 16.3038 27.3352 13.4952 25.9621 11.0898C24.589 8.68437 22.4178 6.83307 19.8233 5.85547Z" fill="#468459"/>
</g>
<path d="M181.307 13.7098H182.206V12.7231H181.307V13.7098ZM189.376 19.0161L188.368 17.3497L187.71 18.5776C186.862 18.2414 186.095 17.8759 185.408 17.4812V18.6434H182.206V17.6347C181.519 18.0879 180.679 18.5483 179.685 19.0161H189.376ZM191.657 15.3763C191.35 14.9523 191.028 14.4188 190.692 13.7756C190.429 14.0679 190.02 14.4773 189.464 15.0035L188.543 13.6221V15.3324H186.022C186.84 15.7125 187.776 16.0852 188.828 16.4507C190.056 16.0706 190.999 15.7125 191.657 15.3763ZM193.893 13.644C194.361 13.0301 194.712 12.2188 194.946 11.2101H192.775C193.082 12.2188 193.455 13.0301 193.893 13.644ZM193.828 17.4374C192.834 18.0221 191.518 18.5483 189.881 19.0161H197.314C195.823 18.5337 194.661 18.0075 193.828 17.4374ZM186.307 13.7098V12.7231H185.408V13.7098H186.307ZM190.407 24.6952H198.41V27.1071H178.457V24.6952H181.242V21.8447H184.728V24.6952H186.833V21.3623H179.115V19.2354L177.887 16.9331C179.217 16.4653 180.386 15.9317 181.395 15.3324H181.307H178.895V10.9909H182.206V10.5085H178.281V8.22809H182.206V7.26331H185.408V8.22809H189.333V10.5085H185.408V10.9909H188.543V11.6268C189.669 10.4573 190.604 8.94437 191.35 7.08789L194.376 7.37294C194.215 7.89919 194.061 8.33772 193.915 8.68855H198.695V11.2101H197.862C197.57 13.0228 197 14.4553 196.152 15.5078C196.839 15.8586 197.782 16.2314 198.98 16.6261L197.752 19.1696V21.3623H190.407V21.9324H196.656V24.0593H190.407V24.6952Z" fill="#96C519"/>
<path d="M217.136 21.5377C216.23 19.9736 215.418 18.2779 214.702 16.4507V21.5377H217.136ZM211.303 16.4507C210.602 18.2341 209.776 19.9297 208.826 21.5377H211.303V16.4507ZM209.659 13.666H205.646V11.2979C205.471 11.9118 205.273 12.5038 205.054 13.0739V21.2965C207.042 18.7968 208.577 16.2533 209.659 13.666ZM220.644 10.8155V13.666H216.39C217.516 16.4287 219.109 19.0746 221.17 21.6035L219.35 24.9802C218.868 24.2932 218.356 23.5257 217.816 22.6779V24.2347H214.702V27.5237H211.303V24.2347H208.124V22.6998C207.7 23.3723 207.174 24.1324 206.545 24.9802L205.054 23.3138V27.5237H201.831V18.4679C201.334 19.3012 200.822 20.0101 200.296 20.5949L199.55 16.341C200.428 15.157 201.144 13.8779 201.699 12.5038C202.269 11.1151 202.759 9.41214 203.168 7.39487L206.37 7.96497C206.224 8.95898 206.026 9.90915 205.778 10.8155H211.303V7.48258H214.702V10.8155H220.644Z" fill="#96C519"/>
<path d="M227.376 10.5304H225.643V14.85C226.345 13.4613 226.923 12.0214 227.376 10.5304ZM232.55 13.1178H238.822V11.9776H232.55V13.1178ZM239.918 21.3623L242.505 21.7351C242.476 22.4075 242.454 22.9045 242.439 23.2261C242.425 23.5477 242.388 23.9424 242.33 24.4101C242.286 24.8633 242.257 25.1776 242.242 25.353C242.228 25.5284 242.169 25.755 242.067 26.0327C241.964 26.3105 241.891 26.4859 241.847 26.559C241.804 26.6321 241.694 26.7344 241.519 26.8659C241.343 27.0121 241.197 27.0852 241.08 27.0852C240.978 27.0998 240.78 27.1291 240.488 27.1729C240.21 27.2168 239.976 27.2387 239.786 27.2387C239.596 27.2387 239.289 27.2387 238.865 27.2387C237.36 27.2387 236.424 27.1218 236.059 26.8879C235.708 26.654 235.533 26.0766 235.533 25.1556V19.8493H234.765C234.692 21.6766 234.224 23.1822 233.362 24.3663C232.514 25.5503 231.147 26.6101 229.261 27.5457L227.551 24.9144C229.013 24.2566 230.051 23.555 230.665 22.8095C231.279 22.064 231.637 21.0772 231.739 19.8493H229.897C229.897 19.8786 229.897 19.9224 229.897 19.9809C229.912 20.0394 229.919 20.0832 229.919 20.1125C229.919 21.355 229.656 22.254 229.13 22.8095C228.618 23.3649 227.807 23.6427 226.696 23.6427H226.323L225.687 20.9676H225.841C226.294 20.9676 226.594 20.8726 226.74 20.6826C226.886 20.4779 226.959 20.0613 226.959 19.4327C226.959 18.8188 226.864 18.2706 226.674 17.7882C226.484 17.3058 226.14 16.7576 225.643 16.1437V27.4799H222.574V7.96497H230.38V9.2148H233.471V7.24138H237.067V9.2148H242.067V14.6088H240.203V15.7709H231.169V14.6088H229.546V12.9424C229.093 14.0826 228.699 14.967 228.362 15.5955C228.699 16.0633 228.991 16.553 229.239 17.0646H242.132V19.8493H238.624V24.0154C238.624 24.2493 238.646 24.3882 238.69 24.4321C238.748 24.4613 238.917 24.4759 239.194 24.4759C239.516 24.4759 239.706 24.3444 239.764 24.0812C239.823 23.8181 239.874 22.9118 239.918 21.3623Z" fill="#96C519"/>
<defs>
<filter id="filter0_d_25_148" x="0" y="5" width="171" height="32" filterUnits="userSpaceOnUse" color-interpolation-filters="sRGB">
<feFlood flood-opacity="0" result="BackgroundImageFix"/>
<feColorMatrix in="SourceAlpha" type="matrix" values="0 0 0 0 0 0 0 0 0 0 0 0 0 0 0 0 0 0 127 0" result="hardAlpha"/>
<feOffset dy="4"/>
<feGaussianBlur stdDeviation="2"/>
<feComposite in2="hardAlpha" operator="out"/>
<feColorMatrix type="matrix" values="0 0 0 0 0 0 0 0 0 0 0 0 0 0 0 0 0 0 0.25 0"/>
<feBlend mode="normal" in2="BackgroundImageFix" result="effect1_dropShadow_25_148"/>
<feBlend mode="normal" in="SourceGraphic" in2="effect1_dropShadow_25_148" result="shape"/>
</filter>
<clipPath id="clip0_25_148">
<rect width="163" height="24" fill="white" transform="translate(4 5)"/>
</clipPath>
</defs>
</svg>
